<?xml version="1.0" encoding="UTF-8"?>
<svg version="1.1" xmlns="http://www.w3.org/2000/svg" width="1024" height="1024">
<path d="M0 0 C337.92 0 675.84 0 1024 0 C1024 337.92 1024 675.84 1024 1024 C686.08 1024 348.16 1024 0 1024 C0 686.08 0 348.16 0 0 Z " fill="#FBF4E5" transform="translate(0,0)"/>
<path d="M0 0 C2.88979111 0.01085406 5.77953599 0.01041764 8.66934395 0.01000786 C27.69574437 0.01056383 46.4742854 0.25097409 65.34875488 2.94561768 C66.58931641 3.12117188 67.82987793 3.29672607 69.10803223 3.4776001 C105.98852048 8.85414187 142.64960588 18.01163566 176.34875488 34.19561768 C177.03083008 34.5188501 177.71290527 34.84208252 178.41564941 35.17510986 C198.62858675 44.79575965 217.1159918 56.67606914 233.34875488 72.19561768 C234.46443848 73.21655518 234.46443848 73.21655518 235.60266113 74.25811768 C253.05185321 90.7665707 266.8955648 116.04709208 267.61437988 140.37921143 C267.62308459 142.13049962 267.6176267 143.88190953 267.59875488 145.63311768 C267.59126221 146.55616699 267.58376953 147.47921631 267.5760498 148.43023682 C267.17096425 174.06377929 254.48593856 195.69910137 237.16125488 213.82061768 C226.14723925 224.43524083 213.53762276 231.96880686 200.25500488 239.41436768 C186.72961292 247.02240065 172.20784517 255.99727644 166.22375488 271.01983643 C163.95690947 279.24727089 164.21750335 287.85304162 167.78625488 295.63311768 C176.85678339 311.38496788 194.19274186 316.09353135 210.47375488 321.25811768 C228.81375762 327.09085822 244.53875578 333.06061911 255.34875488 350.19561768 C262.42067786 364.42570658 261.00844086 377.99666441 256.54016113 392.89093018 C252.25215499 404.74488494 243.83560705 414.38143403 235.63000488 423.72637939 C234.48790892 425.0360466 233.36970372 426.36646058 232.25500488 427.69952393 C227.20478967 433.65008489 221.50566411 438.42172189 215.34875488 443.19561768 C214.4683252 443.90331299 213.58789551 444.6110083 212.68078613 445.34014893 C162.57540239 484.56227584 95.62463989 502.19588248 33.34875488 508.19561768 C32.54130829 508.2767984 31.73386169 508.35797913 30.90194702 508.44161987 C14.67854904 510.04919935 -1.41607808 510.559723 -17.71374512 510.50811768 C-18.91635986 510.50629486 -20.11897461 510.50447205 -21.35803223 510.50259399 C-39.97045693 510.45523296 -58.20525857 509.84871965 -76.65124512 507.19561768 C-77.92177734 507.01869385 -79.19230957 506.84177002 -80.50134277 506.65948486 C-123.60129516 500.58767629 -165.30631076 488.91810656 -204.65124512 470.19561768 C-205.45980957 469.81324951 -206.26837402 469.43088135 -207.10144043 469.03692627 C-271.52193602 438.35867599 -327.22193315 390.43653791 -351.79968262 321.69952393 C-368.1015956 274.17343804 -364.80115146 225.71172755 -346.65124512 179.19561768 C-346.38231445 178.49678467 -346.11338379 177.79795166 -345.83630371 177.07794189 C-337.06036842 154.62550315 -322.41214293 135.20807232 -306.65124512 117.19561768 C-305.94870605 116.38093018 -305.24616699 115.56624268 -304.52233887 114.72686768 C-293.33312683 101.98772684 -281.37274584 90.17525749 -267.65124512 80.19561768 C-266.59550293 79.41831299 -265.53976074 78.6410083 -264.45202637 77.84014893 C-256.97583289 72.49738335 -249.20586047 67.9231731 -241.14245605 63.54864502 C-238.30919159 62.00984145 -235.48459813 60.45558728 -232.65905762 58.90264893 C-179.59224618 29.87372513 -124.05956159 11.64194319 -64.08874512 3.57061768 C-62.85184937 3.40372437 -62.85184937 3.40372437 -61.58996582 3.23345947 C-58.61350556 2.85450347 -55.63385506 2.52291849 -52.65124512 2.19561768 C-51.95119354 2.11270477 -51.25114197 2.02979187 -50.52987671 1.94436646 C-33.69524731 -0.0173699 -16.91879026 -0.08004527 0 0 Z " fill="#EB9F5D" transform="translate(541.6512451171875,259.80438232421875)"/>
<path d="M0 0 C0.87096313 0.16407852 1.74192627 0.32815704 2.63928223 0.49720764 C5.45233689 1.02877028 8.26329801 1.57055698 11.07421875 2.11328125 C13.98233478 2.66865435 16.89077397 3.22231208 19.79924011 3.77584839 C21.72895256 4.14334594 23.65848859 4.51177109 25.58784485 4.88113403 C31.17938174 5.94852293 36.77590383 6.96907719 42.38671875 7.9296875 C43.62252686 8.14471924 44.85833496 8.35975098 46.1315918 8.58129883 C48.35776655 8.96572089 50.58573404 9.33996107 52.81567383 9.7019043 C60.18211201 10.99544284 64.08629696 12.98300484 69.63671875 18.05078125 C72.60483247 22.76484422 72.51940963 25.95612325 71.76171875 31.42578125 C70.38774072 36.85284706 68.44539749 42.1188719 66.5776062 47.39111328 C64.94458511 52.00728059 63.36318817 56.64081127 61.7890625 61.27734375 C61.4583223 62.25108948 61.12758209 63.22483521 60.78681946 64.22808838 C56.20352642 77.87527636 52.34550893 91.74629197 48.47021484 105.60791016 C48.05255104 107.08053818 48.05255104 107.08053818 47.62644958 108.58291626 C47.11064782 110.40190563 46.60276377 112.2231706 46.1051178 114.04721069 C43.62581143 122.75548704 40.65509305 131.41652448 32.76171875 136.42578125 C21.00513988 141.98754741 9.17546932 138.75285577 -2.92578125 136.11328125 C-5.12029288 135.64481732 -7.31539463 135.17919156 -9.51052856 134.71365356 C-10.95694432 134.40559448 -12.40281459 134.09496247 -13.84811401 133.78170776 C-17.38676706 133.01669834 -20.92604025 132.28644808 -24.48681641 131.63134766 C-25.16428421 131.50460159 -25.84175201 131.37785553 -26.53974915 131.24726868 C-28.38423852 130.90569657 -30.23075662 130.57513128 -32.07739258 130.24536133 C-36.93220171 128.98656823 -40.269625 126.79137772 -43.48828125 122.98828125 C-43.9884375 122.41207031 -44.48859375 121.83585937 -45.00390625 121.2421875 C-51.75320743 111.31046266 -46.05050922 91.56505572 -44.55078125 80.55078125 C-44.27679204 78.49953106 -44.00294897 76.44826134 -43.72924805 74.39697266 C-42.13036323 62.512052 -40.43652078 50.64366834 -38.55078125 38.80078125 C-38.36104736 37.60211426 -38.17131348 36.40344727 -37.97583008 35.16845703 C-33.85778767 10.19533064 -33.85778767 10.19533064 -25.23828125 2.55078125 C-17.13084427 -3.19198661 -9.25165577 -1.80925772 0 0 Z " fill="#2D485B" transform="translate(658.23828125,340.57421875)"/>
<path d="M0 0 C10.3378042 4.26492371 15.15660843 13.66961731 19.28491211 23.48803711 C19.76839111 24.66760986 20.25187012 25.84718262 20.75 27.0625 C21.27420682 28.31636628 21.79970008 29.56969543 22.32641602 30.82250977 C23.38942062 33.35287329 24.44779996 35.88508523 25.50244141 38.41894531 C27.60397239 43.44425611 29.76220822 48.44375949 31.9375 53.4375 C32.32768311 54.33573486 32.71786621 55.23396973 33.11987305 56.15942383 C37.26694684 65.67329899 41.52722891 75.13686105 45.79858398 84.59545898 C46.33040283 85.77567627 46.86222168 86.95589355 47.41015625 88.171875 C47.88590088 89.2247168 48.36164551 90.27755859 48.85180664 91.36230469 C51.63988177 97.76722998 52.37530313 105.19771988 49.875 111.875 C45.52656253 119.12239579 38.00209438 122.37045796 30.75 126.1875 C28.60237237 127.33241052 26.45524176 128.4782538 24.30859375 129.625 C23.24624512 130.19089844 22.18389648 130.75679687 21.08935547 131.33984375 C15.8940299 134.13170513 10.75357674 137.02126136 5.62207031 139.9284668 C-2.02366027 144.22255651 -8.08058629 146.22336098 -17 145 C-25.28554603 142.01908117 -29.63435934 136.33838955 -34 129 C-34.35497559 128.40815918 -34.70995117 127.81631836 -35.07568359 127.20654297 C-37.16245749 123.72035114 -39.21854719 120.21729459 -41.2578125 116.703125 C-44.14599774 111.73217437 -47.0993427 106.80153103 -50.0625 101.875 C-50.57039063 101.02993896 -51.07828125 100.18487793 -51.6015625 99.31420898 C-52.59969047 97.65382439 -53.59805679 95.99358306 -54.59667969 94.33349609 C-55.88074538 92.19830126 -57.1634923 90.06232467 -58.4453125 87.92578125 C-58.82139648 87.29905518 -59.19748047 86.6723291 -59.58496094 86.02661133 C-60.31304083 84.81212377 -61.04027144 83.59712662 -61.76660156 82.3815918 C-63.62685462 79.27140158 -65.5059268 76.17483242 -67.4140625 73.09375 C-79.5803361 53.36220381 -79.5803361 53.36220381 -78 43 C-75.11236514 33.97614107 -65.88345194 29.01460407 -57.9375 24.875 C-56.17626789 23.93251182 -54.41588625 22.98843307 -52.65625 22.04296875 C-51.27953125 21.30699463 -51.27953125 21.30699463 -49.875 20.55615234 C-44.8550715 17.83901373 -39.89888278 15.00970498 -34.9375 12.1875 C-32.19994878 10.63073651 -29.46144725 9.07617284 -26.71582031 7.53369141 C-24.83694366 6.47264294 -22.96698875 5.39569713 -21.10449219 4.30615234 C-13.81837725 0.13328564 -8.44204104 -1.58355143 0 0 Z " fill="#F6CC7D" transform="translate(320,385)"/>
<path d="M0 0 C1.49637421 -0.00015524 2.99274882 -0.00164827 4.48912048 -0.00440979 C7.6134536 -0.00578865 10.73732479 0.00667866 13.86157227 0.02954102 C17.85165902 0.05794927 21.84098071 0.05517495 25.83112431 0.0424509 C28.91709344 0.03547285 32.00288794 0.04330671 35.08883476 0.05570793 C36.55952725 0.06020008 38.03023862 0.06057893 39.50093269 0.05664253 C41.56098555 0.05370853 43.62000941 0.07033785 45.67993164 0.09204102 C46.84827042 0.097444 48.01660919 0.10284698 49.22035217 0.1084137 C55.71879686 0.85609842 60.34982669 3.43162893 64.58984375 8.49609375 C66.99705738 12.65631976 67.96717483 15.64976351 67.953125 20.4453125 C67.9543335 22.26397827 67.9543335 22.26397827 67.95556641 24.11938477 C67.93883778 25.47413397 67.92105766 26.82887051 67.90234375 28.18359375 C67.89217143 29.62231275 67.8822526 31.06103356 67.87255859 32.49975586 C67.73020901 47.52267815 67.24975649 62.54298168 66.77706528 77.55850601 C66.71506663 79.55142932 66.6558224 81.54443768 66.59658813 83.53744507 C66.48138872 87.32742601 66.3539342 91.11679561 66.22265625 94.90625 C66.18920609 96.04258881 66.15575592 97.17892761 66.12129211 98.34970093 C65.8255486 106.30171619 65.49178965 114.4928847 60.96484375 121.30859375 C60.51882813 122.01628906 60.0728125 122.72398437 59.61328125 123.453125 C53.74884504 129.37416773 47.55602727 129.97192559 39.58825684 130.07752991 C38.32034302 130.07257004 37.0524292 130.06761017 35.74609375 130.0625 C34.40905325 130.0677458 33.07201645 130.07402575 31.73498535 130.08128357 C28.94440183 130.09164319 26.15432966 130.08719063 23.36376953 130.07250977 C19.80612649 130.05531522 16.25009771 130.07884535 12.69263458 130.11399937 C9.93513503 130.13606778 7.17801635 130.13450969 4.42045593 130.12623405 C2.47740452 130.12502721 0.53437623 130.14485957 -1.40856934 130.16517639 C-8.71047713 130.08858403 -13.81209379 129.39942564 -19.41015625 124.49609375 C-25.45029974 118.29699911 -25.74649474 111.42226218 -26.0078125 103.203125 C-26.04673111 102.19596939 -26.08564972 101.18881378 -26.12574768 100.15113831 C-26.250139 96.87054699 -26.36170906 93.58966498 -26.47265625 90.30859375 C-26.55524159 88.0431101 -26.63841597 85.77764785 -26.72216797 83.51220703 C-26.9652785 76.84061059 -27.19020153 70.16848875 -27.41015625 63.49609375 C-27.44151672 62.55679016 -27.4728772 61.61748657 -27.50518799 60.64971924 C-27.69152705 55.05712086 -27.86882283 49.46432273 -28.03515625 43.87109375 C-28.06598801 42.84999008 -28.06598801 42.84999008 -28.09744263 41.80825806 C-28.22868022 37.37120645 -28.3286893 32.93432138 -28.41015625 28.49609375 C-28.43354065 27.43890137 -28.43354065 27.43890137 -28.45739746 26.36035156 C-28.50235102 24.1842619 -28.53231151 22.00841869 -28.55859375 19.83203125 C-28.57841309 18.54087402 -28.59823242 17.2497168 -28.61865234 15.91943359 C-28.31056365 10.8608626 -26.94160273 8.02840088 -23.41015625 4.49609375 C-16.04127835 -0.46800912 -8.5696937 -0.07264703 0 0 Z " fill="#4B797D" transform="translate(522.41015625,336.50390625)"/>
<path d="M0 0 C9.55161493 6.88604797 11.70036239 15.93130786 13.59838867 27.03881836 C14.35551496 31.44523947 15.43406482 35.64917255 16.6875 39.9375 C19.08830872 50.65093544 20.91974031 61.50602949 22.88598633 72.30566406 C24.02961585 78.55021563 25.26730472 84.74995318 26.6875 90.9375 C28.65851946 100.20129146 28.53075593 108.59867675 23.6875 116.9375 C18.13196848 125.02685751 8.60219501 126.29621108 -0.36816406 128.27539062 C-3.58777268 128.99940212 -6.78853965 129.78658176 -9.9921875 130.578125 C-40.87268588 138.04970135 -40.87268588 138.04970135 -49.5625 133.078125 C-57.14031784 127.17948271 -60.28934754 119.71705859 -62.80078125 110.77734375 C-63.02446884 109.99921326 -63.24815643 109.22108276 -63.47862244 108.41937256 C-64.19966898 105.90614161 -64.91243022 103.39064607 -65.625 100.875 C-66.12220058 99.13567462 -66.61992412 97.39649864 -67.11816406 95.6574707 C-68.09127239 92.2575814 -69.06120669 88.85681624 -70.02783203 85.45507812 C-71.29976326 80.97893656 -72.58394885 76.50638634 -73.87133789 72.03466797 C-74.5531454 69.65761387 -75.22652953 67.27830646 -75.8984375 64.8984375 C-76.97785377 61.08198608 -78.09842518 57.27888543 -79.2265625 53.4765625 C-79.88042762 51.23443894 -80.53407639 48.99225227 -81.1875 46.75 C-81.49848633 45.72156982 -81.80947266 44.69313965 -82.12988281 43.63354492 C-86.27910084 29.25107712 -86.27910084 29.25107712 -83.34814453 22.82226562 C-80.23452332 17.83271878 -75.71735567 14.88530557 -70.109375 13.32421875 C-68.65150978 12.99942225 -67.18800175 12.69831935 -65.71875 12.4296875 C-62.52877725 11.77719307 -59.44063967 10.83939665 -56.3125 9.9375 C-53.37757543 9.19763252 -50.43822507 8.47829419 -47.49731445 7.76269531 C-42.93038396 6.63384849 -38.40008615 5.40801448 -33.875 4.12109375 C-32.74167236 3.80293701 -31.60834473 3.48478027 -30.44067383 3.15698242 C-28.19502027 2.52422217 -25.95246141 1.88034341 -23.71362305 1.22387695 C-15.81929822 -0.98460782 -7.98257395 -2.56044825 0 0 Z " fill="#DC724D" transform="translate(448.3125,348.0625)"/>
<path d="M0 0 C1.64645508 0.00749268 1.64645508 0.00749268 3.32617188 0.01513672 C11.72240112 0.19576776 18.24420517 1.26804653 25.625 5.5 C26.44613281 5.95761719 27.26726562 6.41523437 28.11328125 6.88671875 C39.38466725 13.8010984 46.98190709 23.50846179 50.8984375 36.0859375 C53.53261612 48.46374457 51.96620758 60.20047149 45.5 71.0625 C36.43309913 84.46492519 23.19962363 94.06519192 7.625 98.5 C6.71947388 98.76151855 6.71947388 98.76151855 5.7956543 99.02832031 C1.45729097 99.97103969 -3.01566632 99.72751134 -7.4375 99.75 C-8.42427734 99.770625 -9.41105469 99.79125 -10.42773438 99.8125 C-25.62043509 99.89209503 -39.20987493 94.38547262 -50.1875 83.84765625 C-59.29808596 74.07004525 -63.02770985 63.43842488 -62.91796875 50.20776367 C-62.48981898 39.60771191 -58.0898182 31.49986428 -51.375 23.5 C-50.653125 22.51 -49.93125 21.52 -49.1875 20.5 C-37.12413888 6.36204811 -18.01856601 -0.1079785 0 0 Z " fill="#FBF4E5" transform="translate(609.375,542.5)"/>
<path d="M0 0 C2 1 2 1 2.75 2.75 C3.07075446 5.63679016 2.13355328 7.36666852 1 10 C5.76904424 9.88157356 10.53788767 9.75731313 15.30664062 9.62768555 C16.92834357 9.58442069 18.55008958 9.54273972 20.171875 9.50268555 C22.50534027 9.44477786 24.83859043 9.38114302 27.171875 9.31640625 C27.89493835 9.29969376 28.61800171 9.28298126 29.36297607 9.26576233 C32.69890556 9.16797351 35.80554016 9.0154335 39 8 C36.40327929 10.84402744 34.50068537 11.92630434 30.55122375 12.12025452 C29.5808165 12.11803391 28.61040924 12.11581329 27.6105957 12.11352539 C26.50968094 12.11344986 25.40876617 12.11337433 24.27449036 12.11329651 C23.08691635 12.10813522 21.89934235 12.10297394 20.67578125 12.09765625 C19.45924362 12.0962413 18.24270599 12.09482635 16.98930359 12.09336853 C13.0970109 12.08776312 9.20477536 12.07520967 5.3125 12.0625 C2.67643312 12.0574857 0.04036534 12.05292267 -2.59570312 12.04882812 C-9.06382164 12.03779193 -15.53190674 12.0210485 -22 12 C-22 11.67 -22 11.34 -22 11 C-20.89140625 10.93941406 -19.7828125 10.87882812 -18.640625 10.81640625 C-17.1770718 10.73197049 -15.71353075 10.64732401 -14.25 10.5625 C-13.15558594 10.50352539 -13.15558594 10.50352539 -12.0390625 10.44335938 C-6.94006118 10.16649674 -6.94006118 10.16649674 -2 9 C-1.67 8.34 -1.34 7.68 -1 7 C-1.66 6.34 -2.32 5.68 -3 5 C-2.67 4.01 -2.34 3.02 -2 2 C-1.34 2 -0.68 2 0 2 C0 1.34 0 0.68 0 0 Z " fill="#3E747E" transform="translate(539,454)"/>
<path d="M0 0 C5.40049736 0.31767632 7.52337065 3.19996327 11 7 C10.67 7.99 10.34 8.98 10 10 C8.35 10.33 6.7 10.66 5 11 C5.33 10.34 5.66 9.68 6 9 C5.01 9 4.02 9 3 9 C2.34 9 1.68 9 1 9 C1 8.34 1 7.68 1 7 C0.34 7 -0.32 7 -1 7 C0.875 3.125 0.875 3.125 2 2 C1.34 1.34 0.68 0.68 0 0 Z " fill="#244159" transform="translate(718,353)"/>
<path d="M0 0 C0.66 0 1.32 0 2 0 C3.72595833 4.50820316 4.32331898 8.36566111 4.375 13.1875 C4.40335938 14.39792969 4.43171875 15.60835938 4.4609375 16.85546875 C4 20 4 20 1.9765625 21.92578125 C1.32429687 22.28027344 0.67203125 22.63476562 0 23 C-0.02690104 20.20826945 -0.04679053 17.41679652 -0.0625 14.625 C-0.07087891 13.8309375 -0.07925781 13.036875 -0.08789062 12.21875 C-0.11328125 6.2265625 -0.11328125 6.2265625 1 4 C0.01 4 -0.98 4 -2 4 C-2 3.34 -2 2.68 -2 2 C-1.34 2 -0.68 2 0 2 C0 1.34 0 0.68 0 0 Z " fill="#587C7A" transform="translate(584,424)"/>
<path d="M0 0 C0.33 0 0.66 0 1 0 C1 1.98 1 3.96 1 6 C2.32 5.34 3.64 4.68 5 4 C4.34 5.65 3.68 7.3 3 9 C3.66 9 4.32 9 5 9 C5.93065133 11.60582371 6.14917407 12.64198224 5.0625 15.25 C4.711875 15.8275 4.36125 16.405 4 17 C0.55482892 12.80587869 -0.14140424 9.61548836 -0.0625 4.25 C-0.05347656 3.45078125 -0.04445313 2.6515625 -0.03515625 1.828125 C-0.02355469 1.22484375 -0.01195312 0.6215625 0 0 Z M7 8 C7.66 8.66 8.32 9.32 9 10 C8.01 10 7.02 10 6 10 C6.33 9.34 6.66 8.68 7 8 Z " fill="#1E3F5A" transform="translate(611,447)"/>
<path d="M0 0 C0.99 0.66 1.98 1.32 3 2 C2.32453125 2.02578125 1.6490625 2.0515625 0.953125 2.078125 C-4.72135793 2.31325112 -4.72135793 2.31325112 -9.5 5.0625 C-9.995 5.701875 -10.49 6.34125 -11 7 C-11.66 7 -12.32 7 -13 7 C-13.33 5.68 -13.66 4.36 -14 3 C-8.98428297 -0.00943022 -5.69817438 -0.46706347 0 0 Z " fill="#284159" transform="translate(649,339)"/>
<path d="M0 0 C5.28798182 0.41474367 8.11690718 1.35224614 12 5 C11.67 5.99 11.34 6.98 11 8 C10.34 7.01 9.68 6.02 9 5 C6.75637427 4.7715451 6.75637427 4.7715451 4.875 7 C3.946875 7.99 3.946875 7.99 3 9 C3.33 7.02 3.66 5.04 4 3 C3.34 3 2.68 3 2 3 C2 2.34 2 1.68 2 1 C1.34 0.67 0.68 0.34 0 0 Z " fill="#3D747D" transform="translate(574,338)"/>
<path d="M0 0 C0.33 0 0.66 0 1 0 C1.10901505 2.83439137 1.18777904 5.66450203 1.25 8.5 C1.28351562 9.29148437 1.31703125 10.08296875 1.3515625 10.8984375 C1.45153439 16.99672294 0.06910431 20.7317737 -3 26 C-3.33 25.34 -3.66 24.68 -4 24 C-3.690625 23.401875 -3.38125 22.80375 -3.0625 22.1875 C-1.81575021 19.6206622 -1.92388376 17.81630106 -2 15 C-1.67 14.67 -1.34 14.34 -1 14 C-0.76472227 11.65012738 -0.58613583 9.29443961 -0.4375 6.9375 C-0.35371094 5.64714844 -0.26992188 4.35679687 -0.18359375 3.02734375 C-0.12300781 2.02832031 -0.06242188 1.02929688 0 0 Z " fill="#2E7181" transform="translate(586,432)"/>
<path d="M0 0 C0.66 0.33 1.32 0.66 2 1 C0.5741914 4.45195767 -1.09746334 6.1014256 -4.125 8.25 C-4.84945312 8.77078125 -5.57390625 9.2915625 -6.3203125 9.828125 C-6.87460937 10.21484375 -7.42890625 10.6015625 -8 11 C-6.63629701 8.00779732 -5.05091917 5.70973471 -2.875 3.25 C-2.33617187 2.63640625 -1.79734375 2.0228125 -1.2421875 1.390625 C-0.62730469 0.70226562 -0.62730469 0.70226562 0 0 Z " fill="#FCF9F2" transform="translate(784,675)"/>
<path d="M0 0 C2.475 0.99 2.475 0.99 5 2 C4.34 4.31 3.68 6.62 3 9 C1.35173889 6.03312999 0.55728913 3.34373475 0 0 Z " fill="#23415A" transform="translate(701,445)"/>
<path d="M0 0 C0.66 0.66 1.32 1.32 2 2 C1.625 4.125 1.625 4.125 1 6 C-0.98 6.33 -2.96 6.66 -5 7 C-3.35 4.69 -1.7 2.38 0 0 Z " fill="#E99850" transform="translate(228,385)"/>
<path d="M0 0 C0 3.3 0 6.6 0 10 C-0.66 10 -1.32 10 -2 10 C-2.33 7.03 -2.66 4.06 -3 1 C-1 0 -1 0 0 0 Z " fill="#3B4E59" transform="translate(615,433)"/>
</svg>
