<?xml version="1.0" encoding="UTF-8"?>
<svg version="1.1" xmlns="http://www.w3.org/2000/svg" width="512" height="512">
<path d="M0 0 C168.96 0 337.92 0 512 0 C512 168.96 512 337.92 512 512 C343.04 512 174.08 512 0 512 C0 343.04 0 174.08 0 0 Z " fill="#FAF3E4" transform="translate(0,0)"/>
<path d="M0 0 C1.62612213 0.00164658 1.62612213 0.00164658 3.28509521 0.00332642 C20.42407737 0.05295394 36.61531839 1.07230718 53.25 5.5 C54.05356934 5.70818359 54.85713867 5.91636719 55.68505859 6.13085938 C60.29922758 7.36077373 64.76967502 8.83858773 69.25 10.5 C71.07917969 11.15935547 71.07917969 11.15935547 72.9453125 11.83203125 C87.3250505 17.18760638 100.91861579 24.02760782 112.25 34.5 C113.04921875 35.20769531 113.8484375 35.91539062 114.671875 36.64453125 C125.22454141 46.4712592 131.13847798 58.52567204 131.6875 72.9375 C131.31797866 86.4973265 124.76877584 98.45323442 115.70703125 108.27734375 C109.88473631 113.54425285 102.87551774 117.34934653 96.1484375 121.33984375 C86.21977229 127.3166965 86.21977229 127.3166965 80.5 137.01953125 C79.74080595 142.29434824 80.05076779 146.06235533 83.25 150.5 C87.5686398 154.55632242 91.42778884 156.66844138 97 158.5625 C98.42324217 159.07664278 99.8464194 159.59096535 101.26953125 160.10546875 C103.57386932 160.91917965 105.88190559 161.71175114 108.19921875 162.48828125 C115.2832348 165.01272653 121.34187751 168.97110861 125.4765625 175.41015625 C128.52964273 182.35805378 128.26126454 190.42329515 125.8125 197.5 C123.0746889 203.65271527 118.63851482 208.47020573 114.25 213.5 C113.61578125 214.33402344 112.9815625 215.16804687 112.328125 216.02734375 C101.76561943 228.59513704 84.71120628 236.52018503 69.65234375 242.2109375 C67.36198384 243.07869728 65.09634431 244.01436031 62.859375 245.01171875 C39.21744176 254.76017824 12.45856581 255.87083362 -12.75 255.9375 C-14.23640488 255.9467601 -14.23640488 255.9467601 -15.75283813 255.95620728 C-32.82972911 256.02463011 -49.51426446 254.53944965 -66.0625 250.125 C-66.8860498 249.91077393 -67.70959961 249.69654785 -68.55810547 249.47583008 C-108.88316197 238.7822167 -148.49663021 216.94436234 -170.63183594 180.42773438 C-179.88315601 164.47829698 -183.92697688 148.21743231 -183.9375 129.8125 C-183.94974609 128.70455078 -183.96199219 127.59660156 -183.97460938 126.45507812 C-183.99349338 115.68489954 -182.51123562 105.62341203 -179 95.4375 C-178.60421753 94.28000244 -178.60421753 94.28000244 -178.20043945 93.09912109 C-172.40721469 76.67149831 -161.59387707 63.94903867 -149.75 51.5 C-149.02167969 50.695625 -148.29335937 49.89125 -147.54296875 49.0625 C-141.43713151 42.53752366 -134.39004026 37.98975787 -126.75 33.5 C-126.05696777 33.09104492 -125.36393555 32.68208984 -124.64990234 32.26074219 C-104.48921769 20.47198263 -83.68619517 12.23218583 -61.125 6.3125 C-60.25149902 6.07450684 -59.37799805 5.83651367 -58.47802734 5.59130859 C-39.36778781 0.77918369 -19.6135511 -0.08258138 0 0 Z " fill="#EA9F5D" transform="translate(273.75,129.5)"/>
<path d="M0 0 C1.55654297 0.33257812 1.55654297 0.33257812 3.14453125 0.671875 C5.18309871 1.10889451 7.22065483 1.5506631 9.25708008 1.99755859 C11.09616037 2.39991122 12.93703394 2.79420174 14.7800293 3.17822266 C15.97366089 3.43031494 15.97366089 3.43031494 17.19140625 3.6875 C17.88177979 3.83058594 18.57215332 3.97367188 19.28344727 4.12109375 C22.42228507 4.97997765 24.07688755 6.11441054 26.125 8.625 C27.14569829 16.02506259 24.84292798 22.93961261 21.7265625 29.625 C18.91076028 36.08693869 17.61141414 43.18570539 15.99414062 50.02148438 C14.23986904 56.93866915 12.22792204 62.48411114 7.125 67.625 C0.04053874 71.16723063 -10.49860524 68.00880275 -17.8125 66.375 C-18.82634766 66.17003906 -19.84019531 65.96507812 -20.88476562 65.75390625 C-22.3475293 65.43486328 -22.3475293 65.43486328 -23.83984375 65.109375 C-25.14876587 64.82658691 -25.14876587 64.82658691 -26.48413086 64.53808594 C-29.41263342 63.41967487 -30.87730451 62.01922089 -32.875 59.625 C-35.62075623 51.38773132 -33.52217927 42.07674286 -32 33.75 C-31.62806838 31.6394704 -31.25696732 29.52879426 -30.88671875 27.41796875 C-30.70931152 26.41813965 -30.5319043 25.41831055 -30.34912109 24.38818359 C-29.75989154 20.95414648 -29.28163016 17.51481681 -28.8125 14.0625 C-27.85629296 7.91662229 -26.95770112 3.47103054 -22.125 -0.8125 C-14.98698909 -4.24423602 -7.3980094 -1.62373079 0 0 Z " fill="#2E485A" transform="translate(338.875,171.375)"/>
<path d="M0 0 C0.639375 -0.01933594 1.27875 -0.03867188 1.9375 -0.05859375 C5.87876964 0.88940103 8.43982789 3.55261202 10.5612793 6.90380859 C10.99867432 7.83016113 11.43606934 8.75651367 11.88671875 9.7109375 C12.38993652 10.77151367 12.8931543 11.83208984 13.41162109 12.92480469 C16.28283285 19.27448109 19.0722375 25.65533871 21.8125 32.0625 C22.68839868 34.10152467 23.56527686 36.14012497 24.44255066 38.17855835 C25.22613472 40.00065117 26.00730348 41.82378213 26.78833008 43.64697266 C27.48883317 45.26026105 28.21343735 46.8643747 29 48.4375 C29.38456632 53.53300377 29.01408163 56.3137585 26 60.4375 C22.36106764 63.10656845 18.34919586 65.12045777 14.375 67.25 C13.31925781 67.84748047 12.26351562 68.44496094 11.17578125 69.06054688 C5.81635253 71.96606121 1.27154471 74.12284963 -4.88037109 74.14331055 C-10.8786808 72.14594665 -14.09755499 67.20300208 -17.09375 61.95703125 C-17.44836304 61.34413742 -17.80297607 60.73124359 -18.16833496 60.09977722 C-19.28991775 58.15594215 -20.39528949 56.20346332 -21.5 54.25 C-22.23979303 52.95965954 -22.98067092 51.66994044 -23.72265625 50.38085938 C-24.80920296 48.49274425 -25.89389357 46.60375569 -26.97091675 44.71018982 C-29.50582454 40.25686792 -32.15387156 35.88734759 -34.90087891 31.56201172 C-36.49020293 28.48997759 -36.96542605 25.95801278 -36.70776367 22.51586914 C-34.264487 15.34111428 -24.63533117 11.32146841 -18.3125 8.1875 C-16.66216468 7.35013142 -15.0124075 6.51162224 -13.36328125 5.671875 C-12.59967285 5.28781494 -11.83606445 4.90375488 -11.04931641 4.50805664 C-9.38078654 3.63642173 -7.76443419 2.6654844 -6.16796875 1.66796875 C-3.90498281 0.38357132 -2.57753356 0.00519664 0 0 Z " fill="#F5CB7C" transform="translate(157,191.5625)"/>
<path d="M0 0 C0.75980164 -0.00807175 1.51960327 -0.01614349 2.3024292 -0.02445984 C3.91302205 -0.03830013 5.52364422 -0.04902254 7.13427734 -0.05688477 C9.5861861 -0.07405635 12.0367316 -0.11793509 14.48828125 -0.16210938 C16.0546776 -0.17224031 17.62108541 -0.18075516 19.1875 -0.1875 C19.91584045 -0.20500809 20.64418091 -0.22251617 21.39459229 -0.24055481 C26.52096389 -0.21893883 29.41949865 0.99840016 33.359375 4.23828125 C34.50131908 6.5221694 34.49168907 7.80778688 34.50463867 10.34570312 C34.51101852 11.19418823 34.51739838 12.04267334 34.52397156 12.91687012 C34.52508438 13.83762329 34.5261972 14.75837646 34.52734375 15.70703125 C34.53233635 17.13215027 34.53233635 17.13215027 34.53742981 18.58605957 C34.54250153 20.60359208 34.54483806 22.621133 34.54467773 24.63867188 C34.54684649 27.69806192 34.56495011 30.75708091 34.58398438 33.81640625 C34.58692195 35.77994669 34.58890431 37.74348884 34.58984375 39.70703125 C34.59702927 40.61159058 34.60421478 41.5161499 34.61161804 42.44812012 C34.558896 57.42014497 34.558896 57.42014497 30.359375 62.80078125 C25.15054327 66.54462906 18.5821378 65.53997155 12.3840332 65.58837891 C10.83114623 65.60492487 9.278335 65.63219767 7.72583008 65.67041016 C5.48218459 65.72532539 3.24032175 65.74707263 0.99609375 65.76171875 C0.30633957 65.78438812 -0.38341461 65.8070575 -1.09407043 65.83041382 C-4.98655921 65.81344707 -6.51297224 65.34372656 -9.55541992 62.83056641 C-12.33994933 59.36889526 -12.78095629 57.66089819 -12.95703125 53.3046875 C-13.02047729 51.76095459 -13.02047729 51.76095459 -13.08520508 50.18603516 C-13.29358365 44.20388746 -13.48297565 38.22200152 -13.640625 32.23828125 C-13.67607422 30.98160645 -13.71152344 29.72493164 -13.74804688 28.43017578 C-13.84140303 24.74117888 -13.9026828 21.05309087 -13.953125 17.36328125 C-13.982854 16.21158447 -14.01258301 15.0598877 -14.04321289 13.87329102 C-14.0508667 12.80006592 -14.05852051 11.72684082 -14.06640625 10.62109375 C-14.08098877 9.67637207 -14.09557129 8.73165039 -14.1105957 7.75830078 C-13.49935529 4.48078205 -12.17759104 3.32511661 -9.640625 1.23828125 C-6.57895911 -0.29255169 -3.36168578 0.03371983 0 0 Z " fill="#4B797C" transform="translate(260.640625,167.76171875)"/>
<path d="M0 0 C5.91441497 3.86289219 7.17952115 10.13605678 8.5625 16.67578125 C8.9028125 18.44501953 8.9028125 18.44501953 9.25 20.25 C9.49234375 21.41402344 9.7346875 22.57804687 9.984375 23.77734375 C10.68546122 27.17989809 11.34968301 30.58741302 12 34 C12.19795166 35.01924561 12.39590332 36.03849121 12.59985352 37.08862305 C15.70201822 53.46988813 15.70201822 53.46988813 12.3125 60.5 C8.03887125 64.62793686 1.58758921 65.64385233 -4 67 C-4.90878906 67.226875 -5.81757813 67.45375 -6.75390625 67.6875 C-19.90439356 70.6509901 -19.90439356 70.6509901 -25.8125 67.5 C-31.6068182 60.87792206 -33.38854562 52.6410145 -35.5 44.3125 C-36.10206555 41.99033965 -36.70620883 39.66871692 -37.3125 37.34765625 C-37.59996094 36.24695801 -37.88742188 35.14625977 -38.18359375 34.01220703 C-39.42137555 29.4452956 -40.88855727 24.97584642 -42.46875 20.515625 C-43.15488189 17.26658872 -42.98526322 15.17662451 -42 12 C-38.42306762 8.58696799 -35.17934001 7.16557573 -30.44921875 5.859375 C-29.19302734 5.51132813 -27.93683594 5.16328125 -26.64257812 4.8046875 C-25.99232666 4.63163086 -25.3420752 4.45857422 -24.67211914 4.28027344 C-22.69892494 3.75305265 -20.73343575 3.20231106 -18.76757812 2.6484375 C-5.27071763 -1.02436546 -5.27071763 -1.02436546 0 0 Z " fill="#DC724D" transform="translate(224,173)"/>
<path d="M0 0 C5.04040861 3.75670904 8.98435764 8.60021122 11.0859375 14.5546875 C11.99698112 22.05814401 10.90241669 28.31793248 6.71484375 34.6171875 C1.91469131 40.69507836 -4.1773515 45.65247876 -12.00976562 46.88427734 C-21.26589276 47.75678113 -30.34904491 47.54906335 -37.9140625 41.5546875 C-42.75407034 37.05066519 -46.25441764 32.68381062 -47.3203125 26.01171875 C-47.62772317 17.340176 -44.81402812 11.90464915 -39.0859375 5.515625 C-28.66758157 -4.43686948 -12.77304038 -7.51105697 0 0 Z " fill="#FAF3E3" transform="translate(319.9140625,274.4453125)"/>
<path d="M0 0 C0.99 0 1.98 0 3 0 C3 0.99 3 1.98 3 3 C8.61 3 14.22 3 20 3 C19.67 3.66 19.34 4.32 19 5 C9.76 5 0.52 5 -9 5 C-9 4.67 -9 4.34 -9 4 C-4.545 3.505 -4.545 3.505 0 3 C0 2.01 0 1.02 0 0 Z " fill="#3E747D" transform="translate(268,228)"/>
<path d="M0 0 C0.33 0 0.66 0 1 0 C1 2.64 1 5.28 1 8 C0.67 7.34 0.34 6.68 0 6 C-0.66 6 -1.32 6 -2 6 C-2.33 5.01 -2.66 4.02 -3 3 C-2.01 2.67 -1.02 2.34 0 2 C0 1.34 0 0.68 0 0 Z " fill="#768374" transform="translate(294,210)"/>
</svg>
